# xmcd CD database file
#
# Track frame offsets:
#	187
#	20962
#	38137
#	58885
#
# Disc length: 1011 seconds
#
# Revision: 0
# Processed by: cddbd v1.4PL0 Copyright (c) Steve Scherf et al.
# Submitted via: CD2WAV32(EN) R3.19
#
DISCID=3503f104
DTITLE=MAORI - Moonlight Dance
DYEAR=1900
DGENRE=
TTITLE0=Moonlight Dance
TTITLE1=Taiyouni Autameni
TTITLE2=Moonlight Dance Oke
TTITLE3=Taiyouni Autameni Oke
EXTD=
EXTT0=
EXTT1=
EXTT2=
EXTT3=
PLAYORDER=
